<svg xmlns="http://www.w3.org/2000/svg" width="47" height="47" viewBox="0 0 47 47" fill="none">
        <path
            d="M27.3933 40.4916V36.4992C30.3146 35.6553 32.6678 34.0324 34.453 31.6304C36.2383 29.2285 37.1309 26.502 37.1309 23.4509C37.1309 20.3998 36.2383 17.6733 34.453 15.2713C32.6678 12.8694 30.3146 11.2465 27.3933 10.4026V6.41016C31.4182 7.31899 34.6965 9.35577 37.2283 12.5205C39.76 15.6852 41.0259 19.3286 41.0259 23.4509C41.0259 27.5731 39.76 31.2166 37.2283 34.3813C34.6965 37.546 31.4182 39.5828 27.3933 40.4916ZM5.9707 29.3421V17.657H13.7607L23.4983 7.91948V39.0797L13.7607 29.3421H5.9707ZM27.3933 31.2896V15.6121C28.9189 16.3262 30.1117 17.3974 30.9719 18.8255C31.832 20.2537 32.2621 21.8117 32.2621 23.4996C32.2621 25.1549 31.832 26.6886 30.9719 28.1006C30.1117 29.5125 28.9189 30.5755 27.3933 31.2896ZM19.6033 17.3649L15.4161 21.5521H9.86572V25.4471H15.4161L19.6033 29.6342V17.3649Z"
            fill="#041E49" />
    </svg>