<svg width="24" height="24" viewBox="0 0 24 24" fill="none" xmlns="http://www.w3.org/2000/svg">
<g id="button_magic_BASELINE_P900_FILL0_wght400_GRAD0_opsz24 (4) 1">
<path id="Vector" d="M16 22L13 19L16 16L19 19L16 22ZM8 19L2 13L8 7L14 13L8 19ZM17.5 12C17.5 10.4667 16.9667 9.16667 15.9 8.1C14.8333 7.03333 13.5333 6.5 12 6.5C13.5333 6.5 14.8333 5.96667 15.9 4.9C16.9667 3.83333 17.5 2.53333 17.5 1C17.5 2.53333 18.0333 3.83333 19.1 4.9C20.1667 5.96667 21.4667 6.5 23 6.5C21.4667 6.5 20.1667 7.03333 19.1 8.1C18.0333 9.16667 17.5 10.4667 17.5 12Z" fill="white"/>
</g>
</svg>
