<svg width="175" height="60" viewBox="0 0 175 60" fill="none" xmlns="http://www.w3.org/2000/svg">
        <mask id="mask0_191_12263" style="mask-type:alpha" maskUnits="userSpaceOnUse" x="17" y="0" width="31"
            height="60">
            <path
                d="M47.2424 59.5742C30.767 59.5742 17.377 46.2491 17.377 29.787C17.377 13.3248 30.737 -0.000270685 47.2424 -0.000270488L47.2424 59.5742Z"
                fill="#4069FF" />
        </mask>
        <path
            d="M21.8205 46.1581V35.37C21.8205 32.4646 19.4438 30.0645 16.5108 30.0645H0V46.1328C0 49.0383 2.37675 51.4384 5.30975 51.4384H16.5361C19.4438 51.4384 21.8205 49.0635 21.8205 46.1581Z"
            fill="#D0BCFF" />
        <path
            d="M43.6408 51.4384V35.37C43.6408 32.4646 41.264 30.0645 38.331 30.0645H27.1047C24.197 30.0645 21.7949 32.4393 21.7949 35.37V46.1581C21.7949 49.0635 24.1717 51.4637 27.1047 51.4637L43.6408 51.4384Z"
            fill="#4F378B" />
        <path
            d="M32.7423 24.7841V14.0718C32.7423 11.1158 30.3403 8.69043 27.3567 8.69043H16.2062C13.2985 8.69043 10.8965 11.0653 10.8965 13.996V30.0644H27.4073C30.3403 30.0644 32.7423 27.6895 32.7423 24.7841Z"
            fill="#9A82DB" />
        <path
            d="M68.5634 33.7262C61.5488 33.7262 55.8516 28.2572 55.8516 21.1739C55.8516 14.0906 61.483 8.6875 68.4975 8.6875C72.8445 8.6875 76.6976 10.6972 79.1017 14.3542C79.892 15.5402 80.5177 16.891 80.7153 18.3076H74.2606C73.3056 15.8367 71.1321 14.0906 68.4316 14.0906C64.5127 14.0906 61.9769 17.4181 61.9769 21.141C61.9769 24.8638 64.5127 28.3231 68.4646 28.3231C71.165 28.3231 73.1739 26.6429 74.2606 24.2379H80.7153C79.3322 29.9704 74.3924 33.7262 68.5634 33.7262Z"
            fill="black" />
        <path
            d="M124.615 23.4134V33.2971H119.214V23.677C119.214 21.7003 118.95 19.6576 116.447 19.6576C114.043 19.6576 113.451 21.3378 113.451 23.4134V33.2971H108.05V23.4464C108.05 21.6014 107.622 19.6576 105.349 19.6576C102.846 19.6576 102.287 21.5355 102.287 23.677V33.2971H96.8856V21.832L84.8325 39.3262H78.4766L82.0662 34.1537V15.21H87.467V26.1809H87.6317L95.0744 15.21H101.924V17.1208H101.99C103.044 15.2758 104.921 14.584 106.963 14.584C109.301 14.584 111.079 15.77 112.166 17.8127C113.483 15.77 115.459 14.584 117.896 14.584C119.675 14.584 121.387 15.1111 122.639 16.396C124.713 18.5045 124.615 20.646 124.615 23.4134Z"
            fill="black" />
        <path
            d="M137.391 33.8909C135.547 33.8909 133.143 33.1002 132.221 31.3541H132.155V33.2649H126.984V9.18164H132.385V16.6274C133.801 15.1448 135.613 14.5847 137.621 14.5847C138.939 14.5847 140.223 14.9142 141.442 15.4743C144.932 17.0886 146.513 20.3832 146.513 24.139C146.48 29.575 143.022 33.8909 137.391 33.8909ZM136.666 19.6254C134.098 19.6254 132.188 21.6351 132.188 24.1719C132.188 26.7417 133.933 28.8173 136.568 28.8173C139.169 28.8173 141.079 26.7746 141.079 24.2049C141.079 21.7339 139.202 19.6254 136.666 19.6254Z"
            fill="black" />
        <path
            d="M161.696 33.2649V31.3211H161.63C160.642 33.1661 158.304 33.8909 156.361 33.8909C150.795 33.8909 147.271 29.575 147.271 24.2048C147.271 18.9335 150.927 14.5518 156.361 14.5518C158.337 14.5518 160.576 15.3095 161.63 17.0886H161.696V15.1777H167.097V33.2649H161.696ZM157.118 19.6254C154.484 19.6254 152.672 21.701 152.672 24.2707C152.672 26.7746 154.615 28.8172 157.151 28.8172C159.786 28.8172 161.663 26.8076 161.663 24.2048C161.696 21.6021 159.753 19.6254 157.118 19.6254Z"
            fill="black" />
        <path d="M169.6 33.2649V9.18164H175V33.2979H169.6V33.2649Z" fill="black" />
        <path
            d="M95.3538 41.733V55.8509H93.4824V41.733H95.3538ZM101.269 48.0841V49.6161H94.9466V48.0841H101.269ZM102.229 41.733V43.265H94.9466V41.733H102.229Z"
            fill="black" />
        <path
            d="M111.013 53.4268V45.3594H112.817V55.8509H111.101L111.013 53.4268ZM111.353 51.216L112.099 51.1966C112.099 51.8948 112.025 52.5412 111.876 53.1359C111.734 53.7242 111.502 54.2348 111.178 54.6679C110.855 55.101 110.432 55.4404 109.908 55.6861C109.384 55.9252 108.748 56.0448 107.998 56.0448C107.487 56.0448 107.019 55.9705 106.592 55.8218C106.172 55.6731 105.81 55.4437 105.506 55.1334C105.202 54.8231 104.966 54.4191 104.798 53.9213C104.636 53.4236 104.556 52.8256 104.556 52.1275V45.3594H106.35V52.1469C106.35 52.6188 106.401 53.0099 106.505 53.3201C106.615 53.624 106.76 53.8664 106.941 54.0474C107.128 54.2219 107.335 54.3447 107.562 54.4158C107.794 54.4869 108.033 54.5225 108.279 54.5225C109.042 54.5225 109.646 54.3771 110.092 54.0862C110.538 53.7888 110.858 53.3913 111.052 52.8935C111.253 52.3893 111.353 51.8301 111.353 51.216Z"
            fill="black" />
        <path
            d="M117.966 47.0078V55.8509H116.172V45.3594H117.917L117.966 47.0078ZM121.243 45.3013L121.233 46.969C121.085 46.9367 120.943 46.9173 120.807 46.9109C120.678 46.8979 120.529 46.8915 120.361 46.8915C119.947 46.8915 119.582 46.9561 119.265 47.0854C118.948 47.2147 118.68 47.3957 118.46 47.6284C118.24 47.8611 118.066 48.1391 117.937 48.4623C117.814 48.779 117.733 49.1281 117.694 49.5095L117.19 49.8004C117.19 49.1669 117.251 48.5722 117.374 48.0162C117.504 47.4603 117.701 46.969 117.966 46.5424C118.231 46.1093 118.567 45.7731 118.974 45.534C119.388 45.2883 119.879 45.1655 120.448 45.1655C120.577 45.1655 120.726 45.1817 120.894 45.214C121.062 45.2398 121.178 45.2689 121.243 45.3013Z"
            fill="black" />
        <path
            d="M125.316 47.5993V55.8509H123.522V45.3594H125.219L125.316 47.5993ZM124.889 50.2076L124.142 50.1785C124.149 49.461 124.255 48.7984 124.462 48.1908C124.669 47.5767 124.96 47.0434 125.335 46.5909C125.71 46.1384 126.156 45.7893 126.673 45.5437C127.197 45.2916 127.775 45.1655 128.409 45.1655C128.926 45.1655 129.391 45.2366 129.805 45.3788C130.219 45.5146 130.571 45.7344 130.862 46.0382C131.159 46.342 131.386 46.7363 131.541 47.2211C131.696 47.6995 131.773 48.2845 131.773 48.9762V55.8509H129.97V48.9568C129.97 48.4073 129.889 47.9678 129.727 47.6381C129.566 47.3019 129.33 47.0595 129.02 46.9109C128.709 46.7557 128.328 46.6781 127.875 46.6781C127.429 46.6781 127.022 46.7719 126.654 46.9593C126.292 47.1468 125.978 47.4054 125.713 47.735C125.455 48.0647 125.251 48.4429 125.102 48.8695C124.96 49.2897 124.889 49.7357 124.889 50.2076Z"
            fill="black" />
        <path
            d="M137.068 45.3594V55.8509H135.264V45.3594H137.068ZM135.128 42.5766C135.128 42.2857 135.216 42.04 135.39 41.8396C135.571 41.6393 135.836 41.5391 136.185 41.5391C136.528 41.5391 136.79 41.6393 136.971 41.8396C137.158 42.04 137.252 42.2857 137.252 42.5766C137.252 42.8545 137.158 43.0937 136.971 43.2941C136.79 43.488 136.528 43.585 136.185 43.585C135.836 43.585 135.571 43.488 135.39 43.2941C135.216 43.0937 135.128 42.8545 135.128 42.5766Z"
            fill="black" />
        <path
            d="M144.96 45.3594V46.7363H139.288V45.3594H144.96ZM141.208 42.8093H143.002V53.2523C143.002 53.6078 143.057 53.8761 143.167 54.0571C143.277 54.2381 143.419 54.3577 143.593 54.4158C143.768 54.474 143.955 54.5031 144.156 54.5031C144.304 54.5031 144.459 54.4902 144.621 54.4643C144.789 54.432 144.915 54.4061 144.999 54.3868L145.009 55.8509C144.867 55.8962 144.679 55.9382 144.447 55.977C144.22 56.0222 143.946 56.0448 143.622 56.0448C143.183 56.0448 142.779 55.9576 142.41 55.783C142.042 55.6085 141.748 55.3176 141.528 54.9104C141.315 54.4966 141.208 53.9407 141.208 53.2426V42.8093Z"
            fill="black" />
        <path
            d="M154.104 53.4268V45.3594H155.908V55.8509H154.191L154.104 53.4268ZM154.443 51.216L155.19 51.1966C155.19 51.8948 155.116 52.5412 154.967 53.1359C154.825 53.7242 154.592 54.2348 154.269 54.6679C153.946 55.101 153.522 55.4404 152.999 55.6861C152.475 55.9252 151.838 56.0448 151.089 56.0448C150.578 56.0448 150.109 55.9705 149.683 55.8218C149.262 55.6731 148.9 55.4437 148.597 55.1334C148.293 54.8231 148.057 54.4191 147.889 53.9213C147.727 53.4236 147.646 52.8256 147.646 52.1275V45.3594H149.44V52.1469C149.44 52.6188 149.492 53.0099 149.595 53.3201C149.705 53.624 149.851 53.8664 150.032 54.0474C150.219 54.2219 150.426 54.3447 150.652 54.4158C150.885 54.4869 151.124 54.5225 151.37 54.5225C152.133 54.5225 152.737 54.3771 153.183 54.0862C153.629 53.7888 153.949 53.3913 154.143 52.8935C154.343 52.3893 154.443 51.8301 154.443 51.216Z"
            fill="black" />
        <path
            d="M161.056 47.0078V55.8509H159.263V45.3594H161.008L161.056 47.0078ZM164.334 45.3013L164.324 46.969C164.175 46.9367 164.033 46.9173 163.897 46.9109C163.768 46.8979 163.619 46.8915 163.451 46.8915C163.038 46.8915 162.672 46.9561 162.356 47.0854C162.039 47.2147 161.771 47.3957 161.551 47.6284C161.331 47.8611 161.157 48.1391 161.027 48.4623C160.905 48.779 160.824 49.1281 160.785 49.5095L160.281 49.8004C160.281 49.1669 160.342 48.5722 160.465 48.0162C160.594 47.4603 160.791 46.969 161.056 46.5424C161.321 46.1093 161.658 45.7731 162.065 45.534C162.479 45.2883 162.97 45.1655 163.539 45.1655C163.668 45.1655 163.817 45.1817 163.985 45.214C164.153 45.2398 164.269 45.2689 164.334 45.3013Z"
            fill="black" />
        <path
            d="M170.772 56.0448C170.042 56.0448 169.379 55.922 168.784 55.6764C168.196 55.4243 167.689 55.072 167.262 54.6195C166.842 54.167 166.519 53.6304 166.292 53.0099C166.066 52.3893 165.953 51.7106 165.953 50.9736V50.5664C165.953 49.7131 166.079 48.9536 166.331 48.2877C166.583 47.6155 166.926 47.0466 167.359 46.5812C167.792 46.1157 168.283 45.7634 168.833 45.5243C169.382 45.2851 169.951 45.1655 170.539 45.1655C171.289 45.1655 171.936 45.2948 172.479 45.5534C173.028 45.8119 173.477 46.1739 173.827 46.6394C174.176 47.0983 174.434 47.6413 174.602 48.2683C174.77 48.8889 174.854 49.5677 174.854 50.3046V51.1094H167.02V49.6452H173.061V49.5095C173.035 49.0441 172.938 48.5916 172.77 48.152C172.608 47.7124 172.349 47.3504 171.994 47.066C171.638 46.7816 171.154 46.6394 170.539 46.6394C170.132 46.6394 169.757 46.7266 169.415 46.9012C169.072 47.0692 168.778 47.3213 168.532 47.6575C168.287 47.9936 168.096 48.4041 167.96 48.8889C167.824 49.3737 167.757 49.9329 167.757 50.5664V50.9736C167.757 51.4714 167.824 51.94 167.96 52.3796C168.102 52.8127 168.306 53.1941 168.571 53.5238C168.843 53.8534 169.169 54.112 169.55 54.2995C169.938 54.4869 170.378 54.5807 170.869 54.5807C171.503 54.5807 172.039 54.4514 172.479 54.1928C172.918 53.9343 173.303 53.5884 173.633 53.1553L174.719 54.0183C174.492 54.3609 174.205 54.6873 173.856 54.9976C173.507 55.3079 173.077 55.56 172.566 55.7539C172.062 55.9479 171.464 56.0448 170.772 56.0448Z"
            fill="black" />
    </svg>

