<svg xmlns="http://www.w3.org/2000/svg" width="70" height="70" viewBox="0 0 70 70" fill="none">
  <g clip-path="url(#clip0_2739_2881)">
    <g filter="url(#filter0_d_2739_2881)">
      <circle cx="35.5" cy="32.5" r="29.5" fill="#A0BBFF"/>
    </g>
    <path d="M32.4286 42.4286V32.1429H35.8571V42.4286H32.4286ZM34.1429 30.4286C33.6571 30.4286 33.25 30.2643 32.9214 29.9357C32.5929 29.6071 32.4286 29.2 32.4286 28.7143C32.4286 28.2286 32.5929 27.8214 32.9214 27.4929C33.25 27.1643 33.6571 27 34.1429 27C34.6286 27 35.0357 27.1643 35.3643 27.4929C35.6929 27.8214 35.8571 28.2286 35.8571 28.7143C35.8571 29.2 35.6929 29.6071 35.3643 29.9357C35.0357 30.2643 34.6286 30.4286 34.1429 30.4286ZM47.6 31.2857L50.4286 28.4571C50.7143 29.3143 50.9286 30.1929 51.0714 31.0929C51.2143 31.9929 51.2857 32.9143 51.2857 33.8571C51.2857 36.2286 50.8357 38.4571 49.9357 40.5429C49.0357 42.6286 47.8143 44.4429 46.2714 45.9857C44.7286 47.5286 42.9143 48.75 40.8286 49.65C38.7429 50.55 36.5143 51 34.1429 51C31.7714 51 29.5429 50.55 27.4571 49.65C25.3714 48.75 23.5571 47.5286 22.0143 45.9857C20.4714 44.4429 19.25 42.6286 18.35 40.5429C17.45 38.4571 17 36.2286 17 33.8571C17 31.4857 17.45 29.2571 18.35 27.1714C19.25 25.0857 20.4714 23.2714 22.0143 21.7286C23.5571 20.1857 25.3714 18.9643 27.4571 18.0643C29.5429 17.1643 31.7714 16.7143 34.1429 16.7143C35.0857 16.7143 36.0071 16.7857 36.9071 16.9286C37.8071 17.0714 38.6857 17.2857 39.5429 17.5714L36.7143 20.4C36.2857 20.3143 35.8643 20.25 35.45 20.2071C35.0357 20.1643 34.6 20.1429 34.1429 20.1429C30.3143 20.1429 27.0714 21.4714 24.4143 24.1286C21.7571 26.7857 20.4286 30.0286 20.4286 33.8571C20.4286 37.6857 21.7571 40.9286 24.4143 43.5857C27.0714 46.2429 30.3143 47.5714 34.1429 47.5714C37.9714 47.5714 41.2143 46.2429 43.8714 43.5857C46.5286 40.9286 47.8571 37.6857 47.8571 33.8571C47.8571 33.4 47.8357 32.9643 47.7929 32.55C47.75 32.1357 47.6857 31.7143 47.6 31.2857ZM43.5714 33.8571C43.5714 31.2286 42.6571 29 40.8286 27.1714C39 25.3429 36.7714 24.4286 34.1429 24.4286C36.7714 24.4286 39 23.5143 40.8286 21.6857C42.6571 19.8571 43.5714 17.6286 43.5714 15C43.5714 17.6286 44.4857 19.8571 46.3143 21.6857C48.1429 23.5143 50.3714 24.4286 53 24.4286C50.3714 24.4286 48.1429 25.3429 46.3143 27.1714C44.4857 29 43.5714 31.2286 43.5714 33.8571Z" fill="#041E49"/>
  </g>
  <defs>
    <filter id="filter0_d_2739_2881" x="-2" y="-5" width="79" height="79" filterUnits="userSpaceOnUse" color-interpolation-filters="sRGB">
      <feFlood flood-opacity="0" result="BackgroundImageFix"/>
      <feColorMatrix in="SourceAlpha" type="matrix" values="0 0 0 0 0 0 0 0 0 0 0 0 0 0 0 0 0 0 127 0" result="hardAlpha"/>
      <feOffset dx="2" dy="2"/>
      <feGaussianBlur stdDeviation="5"/>
      <feComposite in2="hardAlpha" operator="out"/>
      <feColorMatrix type="matrix" values="0 0 0 0 0 0 0 0 0 0 0 0 0 0 0 0 0 0 0.15 0"/>
      <feBlend mode="normal" in2="BackgroundImageFix" result="effect1_dropShadow_2739_2881"/>
      <feBlend mode="normal" in="SourceGraphic" in2="effect1_dropShadow_2739_2881" result="shape"/>
    </filter>
    <clipPath id="clip0_2739_2881">
      <rect width="70" height="70" fill="white"/>
    </clipPath>
  </defs>
</svg>