<svg width="36" height="35" viewBox="0 0 36 35" fill="none" xmlns="http://www.w3.org/2000/svg">
<g id="Mark">
<path id="Vector" d="M17.5811 30.1881V21.496C17.5811 19.155 15.6661 17.2212 13.303 17.2212H0V30.1677C0 32.5087 1.91498 34.4425 4.27814 34.4425H13.3234C15.6661 34.4425 17.5811 32.529 17.5811 30.1881Z" fill="#D0BCFF"/>
<path id="Vector_2" d="M35.1625 34.4425V21.496C35.1625 19.155 33.2476 17.2212 30.8844 17.2212H21.8392C19.4964 17.2212 17.561 19.1347 17.561 21.496V30.1881C17.561 32.529 19.476 34.4628 21.8392 34.4628L35.1625 34.4425Z" fill="#4F378B"/>
<path id="Vector_3" d="M26.3813 12.9669V4.33586C26.3813 1.95419 24.4459 0 22.042 0H13.0579C10.7151 0 8.77979 1.91348 8.77979 4.27479V17.2213H22.0828C24.4459 17.2213 26.3813 15.3078 26.3813 12.9669Z" fill="#9A82DB"/>
</g>
</svg>
